<svg width="51" height="51" viewBox="0 0 51 51" fill="none" xmlns="http://www.w3.org/2000/svg">
<circle cx="25.5474" cy="25.5474" r="24.8107" fill="url(#paint0_linear_2040_3631)" stroke="url(#paint1_linear_2040_3631)" stroke-width="0.526653"/>
<path d="M31.8112 36.5015C31.7219 36.5487 31.7294 36.5637 31.8149 36.5202C31.8413 36.5095 31.8654 36.494 31.8862 36.4745C31.8862 36.4587 31.8862 36.4587 31.8112 36.5015ZM31.9912 36.404C31.9484 36.4392 31.9484 36.4392 31.9994 36.416C32.0183 36.4071 32.0355 36.3952 32.0504 36.3807C32.0504 36.3605 32.0384 36.365 31.9912 36.404ZM32.1082 36.3335C32.0654 36.3687 32.0654 36.3687 32.1164 36.3455C32.1354 36.3365 32.1526 36.3243 32.1674 36.3095C32.1674 36.2907 32.1554 36.2945 32.1082 36.3335ZM32.2267 36.2637C32.1839 36.299 32.1839 36.299 32.2334 36.275C32.2612 36.26 32.2844 36.2442 32.2844 36.2397C32.2844 36.221 32.2724 36.2247 32.2267 36.2637ZM32.3864 36.158C32.3047 36.2127 32.2762 36.248 32.3512 36.209C32.4014 36.1782 32.4869 36.1107 32.4719 36.1107C32.4397 36.1227 32.4127 36.143 32.3857 36.158H32.3864ZM25.2144 14.0055C25.1597 14.0093 24.9954 14.0243 24.8514 14.0363C21.4405 14.3453 18.2494 16.1813 16.2267 19.0096C15.1089 20.5608 14.3823 22.3591 14.1087 24.2515C14.012 24.9115 14 25.1065 14 26.0013C14 26.8953 14.012 27.0873 14.1087 27.7473C14.762 32.2556 17.9689 36.0402 22.3157 37.4427C23.098 37.6925 23.9177 37.865 24.8514 37.9708C25.2144 38.0098 26.7841 38.0098 27.1471 37.9708C28.761 37.7907 30.1237 37.3925 31.4722 36.7047C31.6792 36.5997 31.7182 36.572 31.6904 36.5487C31.0326 35.6791 30.3804 34.8053 29.7338 33.9274L27.8161 31.3376L25.4139 27.7788C24.6149 26.5872 23.8076 25.4012 22.9922 24.2207C22.984 24.2207 22.9735 25.8025 22.969 27.7315C22.9607 31.1104 22.9607 31.2476 22.918 31.3256C22.877 31.4198 22.8035 31.4962 22.711 31.5409C22.6367 31.5761 22.57 31.5836 22.2152 31.5836H21.8095L21.7038 31.5176C21.6375 31.4751 21.5837 31.4159 21.5478 31.3459L21.4968 31.2401L21.5005 26.5368L21.5088 21.8334L21.583 21.7397C21.6304 21.682 21.6888 21.6344 21.7548 21.5994C21.853 21.5522 21.892 21.5447 22.2977 21.5447C22.774 21.5447 22.8527 21.5634 22.978 21.7007C23.9511 23.1481 24.9158 24.6012 25.8721 26.0598C27.4313 28.4238 29.5598 31.6496 30.606 33.2322L32.5087 36.1115L32.6024 36.0492C33.5168 35.4415 34.3455 34.7138 35.0661 33.8854C36.5777 32.1552 37.5586 30.0259 37.8913 27.7525C37.988 27.0925 38 26.8968 38 26.0028C38 25.108 37.988 24.9167 37.8913 24.2567C37.238 19.7484 34.0311 15.9638 29.6843 14.5605C28.8719 14.3032 28.0357 14.1281 27.1883 14.0378C26.9611 14.0145 25.4101 13.9868 25.2151 14.007L25.2144 14.0055ZM30.1245 21.2634C30.1803 21.2908 30.2301 21.3291 30.2709 21.376C30.3117 21.4228 30.3428 21.4774 30.3622 21.5364C30.3825 21.5994 30.3862 22.9037 30.3825 25.8415L30.3742 30.0596L29.6325 28.9196L28.8863 27.7788V24.7165C28.8863 22.7312 28.8945 21.6182 28.905 21.5634C28.9417 21.4379 29.026 21.3316 29.1398 21.2672C29.2328 21.2199 29.2688 21.2162 29.64 21.2162C29.9873 21.2162 30.0465 21.2199 30.1245 21.2634Z" fill="url(#paint2_linear_2040_3631)"/>
<defs>
<linearGradient id="paint0_linear_2040_3631" x1="11.1254" y1="1" x2="48.4914" y2="9.89991" gradientUnits="userSpaceOnUse">
<stop stop-color="#04071D"/>
<stop offset="1" stop-color="#0C0E23"/>
</linearGradient>
<linearGradient id="paint1_linear_2040_3631" x1="25.5474" y1="1" x2="25.5474" y2="50.0948" gradientUnits="userSpaceOnUse">
<stop stop-color="#66699C" stop-opacity="0.43"/>
<stop offset="1" stop-color="#363749" stop-opacity="0.49"/>
</linearGradient>
<linearGradient id="paint2_linear_2040_3631" x1="26" y1="14" x2="26" y2="38" gradientUnits="userSpaceOnUse">
<stop stop-color="#FDFDFD"/>
<stop offset="1" stop-color="white" stop-opacity="0.18"/>
</linearGradient>
</defs>
</svg>
