<svg width="51" height="51" viewBox="0 0 51 51" fill="none" xmlns="http://www.w3.org/2000/svg">
<circle cx="25.5474" cy="25.5474" r="24.8107" fill="url(#paint0_linear_2068_53)" stroke="url(#paint1_linear_2068_53)" stroke-width="0.526653"/>
<path d="M25.8989 38C25.5775 38 25.2583 37.9157 24.9765 37.7534L22.0405 36.0153C21.602 35.77 21.816 35.6833 21.9606 35.6333C22.5453 35.4286 22.664 35.3824 23.288 35.0279C23.3536 34.9905 23.4395 35.0037 23.5066 35.0434L25.7622 36.3818C25.8436 36.4258 25.9592 36.4258 26.0347 36.3818L34.8291 31.3054C34.9106 31.2592 34.9634 31.1646 34.9634 31.0677V20.9194C34.9634 20.8182 34.9106 20.7279 34.8274 20.6773L26.0364 15.6053C25.955 15.5569 25.8471 15.5569 25.7657 15.6053L16.9765 20.6773C16.8913 20.7257 16.8372 20.8204 16.8372 20.9172V31.0655C16.8372 31.1624 16.89 31.2548 16.9737 31.301L19.382 32.6923C20.6896 33.3461 21.4887 32.5756 21.4887 31.8007V21.7846C21.4887 21.6415 21.6009 21.5314 21.744 21.5314H22.8579C22.9966 21.5314 23.1111 21.6415 23.1111 21.7846V31.8052C23.1111 33.5486 22.1601 34.5502 20.5068 34.5502C19.9983 34.5502 19.5977 34.5502 18.4794 33.9999L16.1724 32.6703C15.6022 32.3401 15.25 31.7237 15.25 31.0655V20.9172C15.25 20.2568 15.6022 19.6404 16.1724 19.3146L24.9756 14.2361C25.5326 13.9213 26.2722 13.9213 26.8248 14.2361L35.617 19.3168C36.1849 19.6448 36.5394 20.259 36.5394 20.9194V31.0677C36.5394 31.7259 36.1849 32.3401 35.617 32.6703L26.8248 37.7488C26.543 37.9117 26.2238 37.9954 25.898 37.9954L25.8989 38ZM28.6153 31.0072C24.7674 31.0072 23.9606 29.2408 23.9606 27.7593C23.9606 27.6184 24.0742 27.5061 24.2153 27.5061H25.3512C25.4766 27.5061 25.5823 27.5975 25.6021 27.7214C25.7738 28.8789 26.2845 29.4627 28.6114 29.4627C30.4649 29.4627 31.253 29.044 31.253 28.0611C31.253 27.4953 31.0285 27.0749 28.1491 26.7931C25.7408 26.5553 24.2527 26.0248 24.2527 24.0986C24.2527 22.3243 25.7496 21.2677 28.257 21.2677C31.0725 21.2677 32.4682 22.2451 32.6443 24.3452C32.6509 24.4178 32.6245 24.4883 32.576 24.5411C32.5276 24.5917 32.4594 24.6226 32.3889 24.6226H31.2464C31.1275 24.6226 31.0241 24.5389 30.9999 24.4244C30.7247 23.2071 30.0599 22.8174 28.2526 22.8174C26.2295 22.8174 25.994 23.5219 25.994 24.0502C25.994 24.6908 26.2713 24.8779 29.001 25.2389C31.7043 25.5978 32.9877 26.1041 32.9877 28.0038C32.9877 29.919 31.3895 31.0175 28.6026 31.0175L28.6153 31.0072Z" fill="#689F63"/>
<defs>
<linearGradient id="paint0_linear_2068_53" x1="11.1254" y1="1" x2="48.4914" y2="9.89991" gradientUnits="userSpaceOnUse">
<stop stop-color="#04071D"/>
<stop offset="1" stop-color="#0C0E23"/>
</linearGradient>
<linearGradient id="paint1_linear_2068_53" x1="25.5474" y1="1" x2="25.5474" y2="50.0948" gradientUnits="userSpaceOnUse">
<stop stop-color="#66699C" stop-opacity="0.43"/>
<stop offset="1" stop-color="#363749" stop-opacity="0.49"/>
</linearGradient>
</defs>
</svg>
