<svg width="51" height="51" viewBox="0 0 51 51" fill="none" xmlns="http://www.w3.org/2000/svg">
<circle cx="25.5474" cy="25.5474" r="24.8107" fill="url(#paint0_linear_2040_3606)" stroke="url(#paint1_linear_2040_3606)" stroke-width="0.526653"/>
<path d="M26.485 28.3832C27.8155 28.3832 28.894 27.3042 28.894 25.9731C28.894 24.642 27.8155 23.563 26.485 23.563C25.1545 23.563 24.076 24.642 24.076 25.9731C24.076 27.3042 25.1545 28.3832 26.485 28.3832Z" fill="#00D8FF"/>
<path d="M26.4849 31.4943C23.1017 31.4943 20.1455 31.0958 17.9333 30.3373C16.4984 29.8476 15.2795 29.1946 14.4109 28.4505C13.4895 27.6631 13 26.8037 13 25.9731C13 24.3792 14.7468 22.8189 17.6789 21.8011C20.0784 20.9657 23.2072 20.5 26.4801 20.5C29.6953 20.5 32.781 20.9513 35.1661 21.7771C36.5625 22.2572 37.7383 22.8813 38.5733 23.5726C39.4803 24.3312 39.9602 25.1618 39.9602 25.9731C39.9602 27.6295 38.007 29.305 34.8589 30.3469C32.6323 31.0862 29.6569 31.4943 26.4849 31.4943ZM26.4849 21.6522C23.38 21.6522 20.3087 22.1035 18.0628 22.8861C15.3659 23.8271 14.1565 25.1138 14.1565 25.9731C14.1565 26.8661 15.457 28.2728 18.3076 29.2474C20.3999 29.9628 23.2312 30.3421 26.4849 30.3421C29.537 30.3421 32.3827 29.958 34.499 29.2522C37.4599 28.268 38.8132 26.8613 38.8132 25.9731C38.8132 25.5171 38.4677 24.9793 37.8391 24.456C37.1144 23.8511 36.0587 23.299 34.7966 22.8621C32.5267 22.0843 29.5754 21.6522 26.4849 21.6522Z" fill="#00D8FF"/>
<path d="M21.0191 37.9852C20.5297 37.9852 20.0978 37.8796 19.733 37.6684C18.3558 36.8714 17.8759 34.5765 18.4565 31.5279C18.9316 29.0266 20.093 26.0883 21.7294 23.2509C23.337 20.4664 25.2662 18.0178 27.1713 16.3615C28.2847 15.3917 29.4124 14.6811 30.4298 14.3067C31.5383 13.8986 32.4981 13.8986 33.1987 14.3019C34.6336 15.1276 35.1087 17.6626 34.4368 20.9081C33.9618 23.2125 32.8292 25.9923 31.2456 28.7433C29.5564 31.6719 27.7328 34.034 25.9716 35.5751C24.8295 36.5738 23.6537 37.3035 22.5788 37.6828C22.0173 37.8844 21.4894 37.9852 21.0191 37.9852ZM22.2237 23.539L22.7227 23.8271C21.1727 26.5156 20.0258 29.401 19.5843 31.7439C19.0516 34.5525 19.5651 36.2425 20.3041 36.6698C20.4865 36.7754 20.7264 36.833 21.0191 36.833C21.9741 36.833 23.4762 36.2281 25.2134 34.711C26.8786 33.2563 28.6206 30.9902 30.2474 28.172C31.7735 25.5266 32.858 22.8669 33.3091 20.6824C33.9378 17.6242 33.3955 15.7518 32.6229 15.3053C32.2294 15.0796 31.5911 15.1084 30.8233 15.3917C29.9355 15.7182 28.9325 16.3567 27.9247 17.2353C26.1156 18.81 24.268 21.1529 22.7227 23.8319L22.2237 23.539Z" fill="#00D8FF"/>
<path d="M31.9511 38.0001C30.6458 38.0001 28.9902 37.2127 27.2626 35.7244C25.3334 34.0633 23.3707 31.5908 21.7295 28.7534C20.1171 25.9688 18.9653 23.0738 18.4806 20.5917C18.1975 19.1417 18.1447 17.8119 18.3271 16.7412C18.5286 15.5746 19.0037 14.744 19.7091 14.3359C21.1392 13.5054 23.5722 14.3599 26.0485 16.5636C27.8049 18.1239 29.6476 20.4956 31.2361 23.2418C32.9301 26.1704 34.0674 28.931 34.5185 31.2259C34.8112 32.7142 34.8592 34.0969 34.6529 35.2203C34.4321 36.4158 33.9331 37.2656 33.2132 37.6832C32.8533 37.8945 32.4262 38.0001 31.9511 38.0001ZM22.7276 28.1772C24.2825 30.8658 26.2116 33.2999 28.016 34.8506C30.1803 36.7134 31.8983 37.1167 32.6421 36.6846C33.4148 36.2381 33.981 34.409 33.3956 31.4515C32.9637 29.2815 31.8743 26.6409 30.2427 23.8227C28.7119 21.1774 26.9507 18.9065 25.2855 17.4278C22.9532 15.3537 21.0624 14.8881 20.2898 15.3345C19.8963 15.5602 19.6036 16.1315 19.4644 16.9381C19.306 17.8695 19.354 19.0601 19.6132 20.3708C20.0739 22.7281 21.1776 25.4983 22.7276 28.1772Z" fill="#00D8FF"/>
<defs>
<linearGradient id="paint0_linear_2040_3606" x1="11.1254" y1="1" x2="48.4914" y2="9.89991" gradientUnits="userSpaceOnUse">
<stop stop-color="#04071D"/>
<stop offset="1" stop-color="#0C0E23"/>
</linearGradient>
<linearGradient id="paint1_linear_2040_3606" x1="25.5474" y1="1" x2="25.5474" y2="50.0948" gradientUnits="userSpaceOnUse">
<stop stop-color="#66699C" stop-opacity="0.43"/>
<stop offset="1" stop-color="#363749" stop-opacity="0.49"/>
</linearGradient>
</defs>
</svg>
