<svg width="51" height="51" viewBox="0 0 51 51" fill="none" xmlns="http://www.w3.org/2000/svg">
<circle cx="25.6234" cy="25.6367" r="24.8107" fill="url(#paint0_linear_2068_52)" stroke="url(#paint1_linear_2068_52)" stroke-width="0.526653"/>
<path d="M30.4162 30.2564C31.2465 30.1718 31.8764 29.4681 31.8478 28.6235C31.8192 27.7791 31.1033 27.1035 30.2443 27.1035H30.1871C29.2994 27.1316 28.6123 27.8636 28.641 28.7362C28.6696 29.1584 28.8414 29.5244 29.0991 29.7777C28.1256 31.6638 26.6367 33.0431 24.4034 34.1973C22.8859 34.9855 21.3112 35.267 19.7364 35.07C18.4479 34.9011 17.4458 34.3382 16.8158 33.4091C15.8996 32.0297 15.8138 30.5378 16.5869 29.0459C17.1309 27.9761 17.9898 27.1879 18.5338 26.7938C18.4193 26.4278 18.2475 25.8086 18.1616 25.3582C14.0099 28.3139 14.4394 32.3113 15.6993 34.1973C16.6441 35.6048 18.5625 36.4775 20.6812 36.4775C21.2538 36.4775 21.8265 36.4211 22.3992 36.2805C26.0641 35.5767 28.8415 33.4373 30.4162 30.2564ZM35.4555 26.7657C33.2794 24.2603 30.0726 22.881 26.4076 22.881H25.9496C25.6919 22.3743 25.1479 22.0364 24.5466 22.0364H24.4893C23.6017 22.0646 22.9147 22.7965 22.9432 23.6692C22.9719 24.5137 23.6876 25.1893 24.5466 25.1893H24.6038C25.2337 25.1612 25.7778 24.767 26.0068 24.2321H26.5222C28.6983 24.2321 30.7597 24.8514 32.6209 26.0619C34.0525 26.9909 35.0833 28.2014 35.6559 29.6651C36.1426 30.8474 36.114 32.0016 35.5986 32.9869C34.7969 34.4788 33.4513 35.2952 31.676 35.2952C30.5307 35.2952 29.4427 34.9574 28.87 34.704C28.5551 34.9855 27.9824 35.4359 27.5815 35.7175C28.8128 36.2804 30.0726 36.5901 31.2751 36.5901C34.0238 36.5901 36.0568 35.0981 36.8299 33.6062C37.6601 31.9734 37.6028 29.1584 35.4555 26.7657ZM20.9103 30.7348C20.9389 31.5793 21.6547 32.2548 22.5137 32.2548H22.571C23.4586 32.2268 24.1457 31.4948 24.1171 30.6222C24.0885 29.7776 23.3726 29.1021 22.5137 29.1021H22.4565C22.3992 29.1021 22.3132 29.1021 22.2561 29.1302C21.0821 27.216 20.5954 25.133 20.7672 22.8809C20.8816 21.1919 21.4543 19.7281 22.4565 18.5176C23.2867 17.476 24.8902 16.9693 25.9783 16.9412C29.0132 16.8849 30.3016 20.6007 30.3875 22.0927C30.7597 22.1771 31.3897 22.3742 31.8192 22.515C31.4755 17.9547 28.6123 15.5901 25.8637 15.5901C23.2867 15.5901 20.9103 17.4199 19.9654 20.1223C18.6483 23.7254 19.5073 27.1879 21.1107 29.9185C20.9676 30.1155 20.8816 30.4251 20.9103 30.7348Z" fill="#764ABC"/>
<defs>
<linearGradient id="paint0_linear_2068_52" x1="11.2015" y1="1.08936" x2="48.5675" y2="9.98926" gradientUnits="userSpaceOnUse">
<stop stop-color="#04071D"/>
<stop offset="1" stop-color="#0C0E23"/>
</linearGradient>
<linearGradient id="paint1_linear_2068_52" x1="25.6234" y1="1.08936" x2="25.6234" y2="50.1841" gradientUnits="userSpaceOnUse">
<stop stop-color="#66699C" stop-opacity="0.43"/>
<stop offset="1" stop-color="#363749" stop-opacity="0.49"/>
</linearGradient>
</defs>
</svg>
