<svg width="51" height="52" viewBox="0 0 51 52" fill="none" xmlns="http://www.w3.org/2000/svg">
<circle cx="24.6234" cy="25.6367" r="24.8107" fill="url(#paint0_linear_2041_26)" stroke="url(#paint1_linear_2041_26)" stroke-width="0.526653"/>
<g clip-path="url(#clip0_2041_26)">
<path fill-rule="evenodd" clip-rule="evenodd" d="M25.0761 14.0894C27.4494 14.0894 29.7695 14.7931 31.7429 16.1117C33.7163 17.4303 35.2544 19.3044 36.1626 21.4972C37.0709 23.6899 37.3085 26.1027 36.8455 28.4304C36.3825 30.7582 35.2396 32.8964 33.5613 34.5746C31.8831 36.2529 29.7449 37.3958 27.4171 37.8588C25.0894 38.3218 22.6766 38.0842 20.4839 37.1759C18.2911 36.2677 16.417 34.7296 15.0984 32.7562C13.7798 30.7828 13.0761 28.4627 13.0761 26.0894C13.0761 22.9068 14.3403 19.8545 16.5908 17.6041C18.8412 15.3536 21.8935 14.0894 25.0761 14.0894Z" fill="#CC6699"/>
<path d="M30.0146 22.3132C29.6582 21.1374 27.3407 20.7524 25.1475 21.4061C23.7739 21.7944 22.5049 22.407 21.413 23.2086C20.2051 24.1592 20.0123 24.9869 20.0916 25.3327C20.3726 26.553 22.3584 27.3504 23.1752 27.9421V27.9454C22.9346 28.0452 21.1719 28.7967 20.7582 29.563C20.3232 30.3727 20.8273 30.9535 21.1618 31.0315C21.6639 31.1333 22.1913 31.1002 22.6699 30.9369C23.1485 30.7736 23.5544 30.4883 23.8305 30.1211C24.0588 29.8235 24.2016 29.4854 24.2476 29.1334C24.2937 28.7814 24.2417 28.4252 24.0958 28.093C24.4892 28.0089 24.8981 27.9891 25.3004 28.0348C26.6809 28.1705 26.9518 28.8956 26.9001 29.1992C26.8757 29.3073 26.824 29.4097 26.7485 29.4995C26.6729 29.5893 26.5753 29.6643 26.4622 29.7195C26.3655 29.7701 26.3357 29.7872 26.3442 29.825C26.356 29.8794 26.4004 29.8775 26.483 29.8657C26.6905 29.8107 26.8732 29.7041 27.0073 29.56C27.1413 29.4159 27.2204 29.241 27.2339 29.0583C27.2671 28.3488 26.4571 27.5514 25.0227 27.5717C24.6061 27.5617 24.1904 27.6097 23.7923 27.7136C23.7726 27.6947 23.7524 27.6758 23.7316 27.6569C22.8446 26.8609 21.2056 26.2976 21.2748 25.2272C21.3 24.838 21.4608 23.8135 24.4224 22.5705C26.8506 21.5522 28.7943 21.8327 29.1304 22.4537C29.6104 23.341 28.0917 24.9893 25.5702 25.2272C25.2915 25.2748 25.0036 25.269 24.728 25.2102C24.4523 25.1514 24.1959 25.0412 23.9778 24.8876C23.8452 24.7647 23.8255 24.7594 23.776 24.7821C23.6956 24.8195 23.7468 24.9283 23.776 24.9926C23.8726 25.139 24.0029 25.2678 24.1594 25.3712C24.3158 25.4747 24.4953 25.5509 24.6872 25.5952C25.6785 25.7765 26.7126 25.6904 27.6426 25.3492C29.172 24.8531 30.3647 23.4696 30.0146 22.3132ZM23.5147 28.3063C23.6263 28.6301 23.6206 28.9746 23.4983 29.2957C23.4852 29.3292 23.4708 29.3623 23.4551 29.3951C23.4393 29.4279 23.4223 29.4594 23.4039 29.4897C23.3093 29.6525 23.1868 29.8028 23.0403 29.9357C22.5833 30.3552 21.9442 30.5141 21.6705 30.3803C21.3748 30.236 21.5226 29.6443 22.0527 29.1728C22.46 28.8339 22.9295 28.5525 23.4433 28.3394L23.5147 28.3063Z" fill="white"/>
</g>
<defs>
<linearGradient id="paint0_linear_2041_26" x1="10.2015" y1="1.08936" x2="47.5675" y2="9.98926" gradientUnits="userSpaceOnUse">
<stop stop-color="#04071D"/>
<stop offset="1" stop-color="#0C0E23"/>
</linearGradient>
<linearGradient id="paint1_linear_2041_26" x1="24.6234" y1="1.08936" x2="24.6234" y2="50.1841" gradientUnits="userSpaceOnUse">
<stop stop-color="#66699C" stop-opacity="0.43"/>
<stop offset="1" stop-color="#363749" stop-opacity="0.49"/>
</linearGradient>
<clipPath id="clip0_2041_26">
<rect width="24" height="24" fill="white" transform="translate(13.0761 14.0894)"/>
</clipPath>
</defs>
</svg>
