<svg width="51" height="51" viewBox="0 0 51 51" fill="none" xmlns="http://www.w3.org/2000/svg">
<circle cx="25.5474" cy="25.5474" r="24.8107" fill="url(#paint0_linear_2040_3621)" stroke="url(#paint1_linear_2040_3621)" stroke-width="0.526653"/>
<path fill-rule="evenodd" clip-rule="evenodd" d="M25.5165 18.2515C22.0939 18.2515 19.9554 19.9735 19.0994 23.4175C20.3829 21.6955 21.8802 21.0499 23.5912 21.4801C24.5674 21.7255 25.2655 22.4384 26.0376 23.2276C27.296 24.5127 28.7525 26 31.9332 26C35.3553 26 37.4943 24.278 38.3498 20.8345C37.0668 22.5565 35.5695 23.2021 33.8585 22.7714C32.8817 22.526 32.1836 21.8131 31.4116 21.0244C30.1532 19.7382 28.6972 18.2515 25.5165 18.2515ZM19.0994 26C15.6773 26 13.5382 27.7221 12.6827 31.1661C13.9662 29.4441 15.4635 28.7984 17.1741 29.2287C18.1508 29.4741 18.8489 30.187 19.6209 30.9762C20.8793 32.2613 22.3353 33.7486 25.5165 33.7486C28.9386 33.7486 31.0777 32.0271 31.9332 28.5831C30.6496 30.3051 29.1524 30.9507 27.4413 30.5205C26.4651 30.2745 25.767 29.5617 24.995 28.773C23.7366 27.4878 22.28 26 19.0994 26Z" fill="#38BDF8"/>
<defs>
<linearGradient id="paint0_linear_2040_3621" x1="11.1254" y1="1" x2="48.4914" y2="9.89991" gradientUnits="userSpaceOnUse">
<stop stop-color="#04071D"/>
<stop offset="1" stop-color="#0C0E23"/>
</linearGradient>
<linearGradient id="paint1_linear_2040_3621" x1="25.5474" y1="1" x2="25.5474" y2="50.0948" gradientUnits="userSpaceOnUse">
<stop stop-color="#66699C" stop-opacity="0.43"/>
<stop offset="1" stop-color="#363749" stop-opacity="0.49"/>
</linearGradient>
</defs>
</svg>
