<svg width="51" height="51" viewBox="0 0 51 51" fill="none" xmlns="http://www.w3.org/2000/svg">
<circle cx="25.5474" cy="25.5474" r="24.8107" fill="url(#paint0_linear_2040_3615)" stroke="url(#paint1_linear_2040_3615)" stroke-width="0.526653"/>
<g clip-path="url(#clip0_2040_3615)">
<path d="M34.4001 14H17.6001C15.6119 14 14.0001 15.6118 14.0001 17.6V34.4C14.0001 36.3882 15.6119 38 17.6001 38H34.4001C36.3883 38 38.0001 36.3882 38.0001 34.4V17.6C38.0001 15.6118 36.3883 14 34.4001 14Z" fill="#3178C6"/>
<path d="M24.9221 27.3126H27.9221V25.3908H19.5314V27.3126H22.5314V35.8908H24.9221V27.3126ZM28.8596 35.422C29.2392 35.6189 29.7033 35.7642 30.2189 35.8626C30.7346 35.9611 31.2971 36.0079 31.8596 36.0079C32.4221 36.0079 32.9377 35.9564 33.4533 35.8486C33.9689 35.7408 34.3908 35.5626 34.7658 35.3329C35.1455 35.0845 35.4689 34.7704 35.6564 34.3486C35.8439 33.9267 35.9892 33.4579 35.9892 32.8486C35.9892 32.422 35.9236 32.0517 35.7971 31.7236C35.6705 31.3954 35.4877 31.1142 35.2346 30.8798C34.9955 30.6314 34.7189 30.4111 34.3908 30.2236C34.0627 30.0361 33.6877 29.8392 33.2658 29.6611C32.9564 29.5345 32.7033 29.4126 32.4221 29.2908C32.1783 29.1689 31.9674 29.047 31.8127 28.9251C31.6392 28.7986 31.508 28.6673 31.4142 28.5314C31.3205 28.3908 31.2736 28.2361 31.2736 28.0626C31.2736 27.9033 31.3153 27.7579 31.4002 27.6267C31.485 27.4954 31.6017 27.3876 31.7517 27.2939C31.9017 27.2001 32.0892 27.1298 32.3142 27.0783C32.5346 27.0267 32.7783 27.0033 33.0642 27.0033C33.2611 27.0033 33.4674 27.0178 33.6736 27.0473C33.8892 27.0768 34.1096 27.1223 34.3299 27.1833C34.5502 27.2442 34.7658 27.3192 34.9861 27.4129C35.1924 27.5067 35.3846 27.6145 35.5486 27.7364V25.5333C35.1924 25.3973 34.7986 25.2942 34.3767 25.2286C33.9549 25.1629 33.4861 25.1301 32.9236 25.1301C32.3611 25.1301 31.8455 25.1911 31.3299 25.3083C30.8142 25.4254 30.3924 25.6129 30.0174 25.8708C29.6377 26.1239 29.3611 26.4333 29.1267 26.8551C28.9064 27.2489 28.7986 27.6989 28.7986 28.2614C28.7986 28.9645 29.0002 29.5739 29.408 30.0426C29.8111 30.5583 30.4392 30.9333 31.2361 31.3083C31.5596 31.4395 31.8455 31.5708 32.1267 31.6973C32.408 31.8239 32.6424 31.9551 32.8299 32.0911C33.0314 32.227 33.1908 32.377 33.2986 32.5364C33.4158 32.6958 33.4767 32.8833 33.4767 33.0989C33.4767 33.2489 33.4402 33.3895 33.3689 33.5208C33.2977 33.652 33.1861 33.7645 33.0361 33.8583C32.8861 33.952 32.7033 34.027 32.4736 34.0833C32.2533 34.1348 32.0049 34.1629 31.6767 34.1629C31.1611 34.1629 30.6455 34.0739 30.1767 33.8958C29.6611 33.7176 29.1924 33.4504 28.8596 33.172V35.422Z" fill="white"/>
</g>
<defs>
<linearGradient id="paint0_linear_2040_3615" x1="11.1254" y1="1" x2="48.4914" y2="9.89991" gradientUnits="userSpaceOnUse">
<stop stop-color="#04071D"/>
<stop offset="1" stop-color="#0C0E23"/>
</linearGradient>
<linearGradient id="paint1_linear_2040_3615" x1="25.5474" y1="1" x2="25.5474" y2="50.0948" gradientUnits="userSpaceOnUse">
<stop stop-color="#66699C" stop-opacity="0.43"/>
<stop offset="1" stop-color="#363749" stop-opacity="0.49"/>
</linearGradient>
<clipPath id="clip0_2040_3615">
<rect width="24" height="24" fill="white" transform="translate(14.0001 14)"/>
</clipPath>
</defs>
</svg>
